HIERARCHY
ROOT SpineBase
{
  OFFSET 0.000000 0.000000 0.000000
  CHANNELS 6 Xposition Yposition Zposition Zrotation Xrotation Yrotation
  JOINT SpineMid
  {
    OFFSET 0.000000 25.970268 0.000000
    CHANNELS 3 Zrotation Xrotation Yrotation
    JOINT SpineShoulder
    {
      OFFSET -0.051922 19.464203 -0.580715
      CHANNELS 3 Zrotation Xrotation Yrotation
      JOINT Neck
      {
        OFFSET -0.025950 6.508609 -0.504293
        CHANNELS 3 Zrotation Xrotation Yrotation
        JOINT Head
        {
          OFFSET 3.188109 11.665498 2.122503
          CHANNELS 3 Zrotation Xrotation Yrotation
          End Site
          {
            OFFSET 0 0 0
          }
        }
      }
      JOINT ShoulderLeft
      {
        OFFSET -11.967312 -1.771448 -9.414313
        CHANNELS 3 Zrotation Xrotation Yrotation
        JOINT ElbowLeft
        {
          OFFSET -1.298909 -21.473658 -5.602857
          CHANNELS 3 Zrotation Xrotation Yrotation
          JOINT WristLeft
          {
            OFFSET 11.966189 -11.766281 -11.285001
            CHANNELS 3 Zrotation Xrotation Yrotation
            JOINT HandLeft
            {
              OFFSET 2.474499 -2.634577 -2.731520
              CHANNELS 3 Zrotation Xrotation Yrotation
              JOINT HandTipLeft
              {
                OFFSET 2.632990 -2.922997 -5.353480
                CHANNELS 3 Zrotation Xrotation Yrotation
                End Site
                {
                  OFFSET 0 0 0
                }
              }
              JOINT ThumbLeft
              {
                OFFSET 3.021260 3.568721 -3.092698
                CHANNELS 3 Zrotation Xrotation Yrotation
                End Site
                {
                  OFFSET 0 0 0
                }
              }
            }
          }
        }
      }
      JOINT ShoulderRight
      {
        OFFSET 14.245643 -4.912570 4.811839
        CHANNELS 3 Zrotation Xrotation Yrotation
        JOINT ElbowRight
        {
          OFFSET 3.580871 -20.598199 1.076304
          CHANNELS 3 Zrotation Xrotation Yrotation
          JOINT WristRight
          {
            OFFSET -1.235012 -15.487152 -18.976420
            CHANNELS 3 Zrotation Xrotation Yrotation
            JOINT HandRight
            {
              OFFSET 0.225964 -0.997467 -2.714655
              CHANNELS 3 Zrotation Xrotation Yrotation
              JOINT HandTipRight
              {
                OFFSET -0.931931 -4.299281 -5.606762
                CHANNELS 3 Zrotation Xrotation Yrotation
                End Site
                {
                  OFFSET 0 0 0
                }
              }
              JOINT ThumbRight
              {
                OFFSET -2.555605 -0.282741 -2.658353
                CHANNELS 3 Zrotation Xrotation Yrotation
                End Site
                {
                  OFFSET 0 0 0
                }
              }
            }
          }
        }
      }
    }
  }
  JOINT HipLeft
  {
    OFFSET -5.738275 1.668058 -6.113408
    CHANNELS 3 Zrotation Xrotation Yrotation
    JOINT KneeLeft
    {
      OFFSET 15.601705 2.918743 -27.354227
      CHANNELS 3 Zrotation Xrotation Yrotation
      JOINT AnkleLeft
      {
        OFFSET 0.284105 -36.495959 -4.459710
        CHANNELS 3 Zrotation Xrotation Yrotation
        JOINT FootLeft
        {
          OFFSET 4.320407 -2.543597 -11.247999
          CHANNELS 3 Zrotation Xrotation Yrotation
          End Site
          {
            OFFSET 0 0 0
          }
        }
      }
    }
  }
  JOINT HipRight
  {
    OFFSET 5.521145 0.660302 -0.396940
    CHANNELS 3 Zrotation Xrotation Yrotation
    JOINT KneeRight
    {
      OFFSET 25.570963 -7.010714 -21.175978
      CHANNELS 3 Zrotation Xrotation Yrotation
      JOINT AnkleRight
      {
        OFFSET -3.626047 -28.369426 -2.738361
        CHANNELS 3 Zrotation Xrotation Yrotation
        JOINT FootRight
        {
          OFFSET -2.908225 -3.503132 -8.918613
          CHANNELS 3 Zrotation Xrotation Yrotation
          End Site
          {
            OFFSET 0 0 0
          }
        }
      }
    }
  }
}
MOTION
Frames: 12
Frame Time: 0.033333
12.143437 38.462783 368.951150 -0.000000 0.000000 -26.917151 -0.000000 0.000000 26.917151 -0.000000 0.000000 0.000000 -0.000000 0.000000 0.000000 0.000000 0.000000 0.000000 -0.000000 0.000000 0.000000 -0.000000 0.000000 0.000000 -0.000000 0.000000 0.000000 -0.000000 0.000000 0.000000 0.000000 0.000000 0.000000 0.000000 0.000000 0.000000 -0.000000 0.000000 0.000000 -0.000000 0.000000 0.000000 -0.000000 0.000000 0.000000 -0.000000 0.000000 0.000000 0.000000 0.000000 0.000000 0.000000 0.000000 0.000000 -0.000000 0.000000 26.917151 -0.000000 0.000000 0.000000 -0.000000 0.000000 0.000000 0.000000 0.000000 0.000000 -0.000000 0.000000 26.917151 -0.000000 0.000000 0.000000 -0.000000 0.000000 0.000000 0.000000 0.000000 0.000000
12.130608 38.465764 368.944913 -0.016968 0.067801 -26.714605 0.045637 -0.052936 26.714637 -0.000000 0.000000 0.000000 -0.000000 0.000000 0.000000 0.000000 0.000000 0.000000 -0.000000 0.000000 0.000000 -0.000000 0.000000 0.000000 -0.376354 0.589462 0.943648 0.912173 0.001961 -1.365930 0.000000 0.000000 0.000000 0.000000 0.000000 0.000000 -0.000000 0.000000 0.000000 1.718565 0.859503 -2.169743 -5.447930 -8.176097 13.110015 5.768056 8.462190 -12.050036 0.000000 0.000000 0.000000 0.000000 0.000000 0.000000 0.201252 1.701903 27.540282 0.425850 -0.645283 -0.974344 -1.360678 -0.862119 0.149481 0.000000 0.000000 0.000000 0.556611 0.893253 26.310273 -0.877467 -0.621635 0.395857 -1.293013 2.487592 1.178402 0.000000 0.000000 0.000000
12.107992 38.467217 368.943189 -0.044428 0.122627 -26.539205 0.094537 -0.089855 26.539327 -0.000000 0.000000 0.000000 -0.000000 0.000000 0.000000 0.000000 0.000000 0.000000 -0.000000 0.000000 0.000000 -0.000000 0.000000 0.000000 -0.756957 0.929101 1.659856 1.829033 0.295494 -2.415686 0.000000 0.000000 0.000000 0.000000 0.000000 0.000000 -0.000000 0.000000 0.000000 3.321157 1.514303 -4.175390 -8.783363 -15.750625 24.779739 12.911475 14.364055 -23.937742 0.000000 0.000000 0.000000 0.000000 0.000000 0.000000 0.362997 3.040254 27.992647 0.746315 -1.196138 -1.700418 -2.408148 -1.514495 0.251135 0.000000 0.000000 0.000000 0.983959 1.531534 25.831642 -1.507264 -1.071548 0.682399 -2.204158 4.208085 1.981054 0.000000 0.000000 0.000000
12.075589 38.467140 368.945977 -0.082382 0.164459 -26.390522 0.146897 -0.110702 26.390782 -0.000000 0.000000 0.000000 -0.000000 0.000000 0.000000 0.000000 0.000000 0.000000 -0.000000 0.000000 0.000000 -0.790517 -0.233442 0.523871 -0.337499 1.266993 1.636827 2.759101 0.889411 -3.170889 0.000000 0.000000 0.000000 0.000000 0.000000 0.000000 -0.000000 0.000000 0.000000 4.781079 1.969026 -5.989176 -10.508802 -21.303111 34.086464 19.524994 17.321917 -33.806199 0.000000 0.000000 0.000000 0.000000 0.000000 0.000000 0.492938 4.009144 28.273478 0.960287 -1.632468 -2.189275 -3.142990 -1.954874 0.316031 0.000000 0.000000 0.000000 1.270486 1.911106 25.488766 -1.884733 -1.340951 0.862302 -2.755710 5.279118 2.425005 0.000000 0.000000 0.000000
12.033399 38.465535 368.953277 -0.130831 0.193287 -26.268205 0.202865 -0.115424 26.268630 -0.000000 0.000000 0.000000 -0.000000 0.000000 0.000000 0.000000 0.000000 0.000000 -0.000000 0.000000 0.000000 -0.982779 -0.424662 0.513382 -0.530296 1.328847 1.938655 3.707899 1.799137 -3.647048 0.000000 0.000000 0.000000 0.000000 0.000000 0.000000 -0.000000 0.000000 0.000000 6.076030 2.230689 -7.588033 -11.498046 -24.503882 40.789867 24.379284 18.094020 -40.780846 0.000000 0.000000 0.000000 0.000000 0.000000 0.000000 0.596159 4.606564 28.382856 1.067432 -1.941698 -2.450520 -3.566198 -2.182405 0.351884 0.000000 0.000000 0.000000 1.408658 2.030714 25.286138 -2.007503 -1.424792 0.937371 -2.962328 5.770570 2.520200 0.000000 0.000000 0.000000
11.981421 38.462401 368.965089 -0.189771 0.209101 -26.171988 0.262542 -0.103960 26.172572 -0.000000 0.000000 0.000000 -0.000000 0.000000 0.000000 0.000000 0.000000 0.000000 -0.000000 0.000000 0.000000 -1.143870 -0.671783 0.413733 -0.763852 1.213906 2.122330 4.678044 3.047645 -3.853871 0.000000 0.000000 0.000000 0.000000 0.000000 0.000000 -0.000000 0.000000 0.000000 7.187815 2.306867 -8.953046 -12.386433 -25.615471 45.036635 27.171251 17.523757 -44.920974 0.000000 0.000000 0.000000 0.000000 0.000000 0.000000 0.674915 4.832677 28.321316 1.067718 -2.117832 -2.490852 -3.678518 -2.196816 0.362943 0.000000 0.000000 0.000000 1.395085 1.891096 25.225048 -1.875223 -1.321598 0.908229 -2.829089 5.709227 2.266933 0.000000 0.000000 0.000000
11.917647 38.465368 368.904867 -0.247743 0.352204 -25.839705 0.376485 -0.209005 25.841153 -0.000000 0.000000 0.000000 -0.000000 0.000000 0.000000 0.000000 0.000000 0.000000 -0.000000 0.000000 0.000000 -1.342119 -0.925114 0.342321 -1.381158 0.238935 1.900430 8.967861 9.645292 -4.673237 0.000000 0.000000 0.000000 0.000000 0.000000 0.000000 -0.000000 0.000000 0.000000 9.139978 2.141126 -11.339812 -14.471150 -24.413892 48.527636 28.574841 15.187774 -47.500536 0.000000 0.000000 0.000000 0.000000 0.000000 0.000000 0.805520 4.674242 27.802472 0.918690 -2.266493 -2.286991 -3.496717 -1.996577 0.351760 0.000000 0.000000 0.000000 0.961806 0.718490 25.170464 -0.924262 -0.590428 0.663324 -0.046228 4.997814 -3.626506 0.000000 0.000000 0.000000
11.856115 38.457649 368.934228 -0.299097 0.331981 -25.770503 0.413685 -0.168920 25.771979 -0.000000 0.000000 0.000000 -0.000000 0.000000 0.000000 0.000000 0.000000 0.000000 -0.270826 0.935669 0.016240 -1.174162 -2.300638 -0.057169 -1.606683 -0.161259 1.818587 8.205122 9.272710 -3.667113 0.000000 0.000000 0.000000 0.000000 0.000000 0.000000 -0.000000 0.000000 0.000000 9.835993 1.837738 -12.183894 -15.561797 -22.071177 47.492254 28.032505 14.323101 -46.519239 0.000000 0.000000 0.000000 0.000000 0.000000 0.000000 0.814742 4.315465 27.487184 0.725505 -2.290955 -2.009001 -3.094511 -1.613598 0.322705 0.000000 0.000000 0.000000 0.413685 -0.168920 25.771979 -0.000000 0.000000 0.000000 0.945300 3.579022 -5.038658 0.000000 0.000000 0.000000
11.717798 38.447950 368.922549 -0.509550 0.380749 -25.729006 0.624321 -0.121784 25.731362 -0.000000 0.000000 0.000000 -0.000000 0.000000 0.000000 0.000000 0.000000 0.000000 -0.168983 1.761885 -0.059648 -1.179990 -3.546089 -0.530610 -1.964463 -0.382848 2.046987 7.139453 8.721686 -2.259090 0.000000 0.000000 0.000000 0.000000 0.000000 0.000000 -0.000000 0.000000 0.000000 9.157375 1.223884 -11.326919 -15.244806 -17.689611 41.381000 24.448291 15.123483 -40.496267 0.000000 0.000000 0.000000 0.000000 0.000000 0.000000 0.944409 3.542437 26.801891 0.407124 -2.107628 -1.301400 -2.320284 -1.072618 0.253829 0.000000 0.000000 0.000000 -0.001556 -1.502383 25.687882 1.162604 0.972706 0.024740 0.204991 3.509811 -3.197306 0.000000 0.000000 0.000000
11.656803 38.435736 369.065954 -0.567677 0.131990 -26.174525 0.567685 0.131953 26.174525 -0.000000 0.000000 0.000000 -0.000000 0.000000 0.000000 0.000000 0.000000 0.000000 -0.568147 2.154809 0.028421 -1.666609 -4.872017 -0.802626 -2.186677 -2.015821 0.824233 5.974615 11.706504 2.700899 0.000000 0.000000 0.000000 0.000000 0.000000 0.000000 -0.000000 0.000000 0.000000 8.079159 0.963239 -9.988554 -14.435041 -14.330505 36.583215 20.564364 14.358352 -35.111485 0.000000 0.000000 0.000000 0.000000 0.000000 0.000000 0.745339 2.546377 26.572683 -0.018583 -1.767356 -0.530111 -1.217212 -0.324038 0.142842 0.000000 0.000000 0.000000 -0.190375 -1.422087 26.443298 1.370982 1.053665 -0.289915 -1.011362 2.267663 0.673234 0.000000 0.000000 0.000000
11.621234 38.414995 369.223914 -0.604387 -0.140522 -26.702351 0.476797 0.397111 26.699957 -0.000000 0.000000 0.000000 0.146334 -0.904558 0.222142 0.000000 0.000000 0.000000 -0.527989 2.685705 -0.012266 -0.358759 -4.635816 -1.180966 -2.038354 -2.056394 0.453737 4.788261 7.196542 -0.143329 0.000000 0.000000 0.000000 0.000000 0.000000 0.000000 -0.000000 0.000000 0.000000 7.500385 1.023635 -9.278593 -14.205288 -13.721589 36.071096 18.997444 12.709896 -33.800275 0.000000 0.000000 0.000000 0.000000 0.000000 0.000000 0.582701 2.179013 26.859488 -0.899778 -1.541745 -0.174019 -0.000000 0.000000 0.000000 0.000000 0.000000 0.000000 -0.011312 -0.500223 27.128537 0.843616 0.576012 -0.433260 -2.542767 -0.334392 6.663991 0.000000 0.000000 0.000000
11.578631 38.396882 369.455785 -0.635292 -0.507614 -27.498233 0.329179 0.743576 27.493282 -0.000000 0.000000 0.000000 0.210177 -1.159354 0.281399 0.000000 0.000000 0.000000 -0.385399 3.217382 -0.082662 0.181897 -5.163679 -1.720509 -2.311884 -1.078188 1.699687 3.056341 1.590839 -2.147414 0.000000 0.000000 0.000000 0.000000 0.000000 0.000000 -0.000000 0.000000 0.000000 5.407760 0.806843 -6.693305 -13.063582 -10.723382 33.166373 16.939799 10.281283 -31.817711 0.000000 0.000000 0.000000 0.000000 0.000000 0.000000 0.329179 0.743576 27.493282 -0.000000 0.000000 0.000000 -0.000000 0.000000 0.000000 0.000000 0.000000 0.000000 -0.221486 -0.147508 28.292445 0.907239 0.523631 -0.800444 -1.638215 -0.515986 4.587684 0.000000 0.000000 0.000000
